ply
format ascii 1.0
comment Created by Blender 2.83.0 - www.blender.org, source file: ''
element vertex 28
property float x
property float y
property float z
property float nx
property float ny
property float nz
property float s
property float t
element face 12
property list uchar uint vertex_indices
end_header
-0.000000 1.000000 1.000000 0.395596 -0.410732 0.821464 0.250000 0.490000
0.000000 -1.000000 0.000000 0.395596 -0.410732 0.821464 0.250000 0.250000
0.781831 1.000000 0.623490 0.395596 -0.410732 0.821464 0.437640 0.399638
0.781831 1.000000 0.623490 0.888897 -0.410732 0.202885 0.437640 0.399638
0.000000 -1.000000 0.000000 0.888897 -0.410732 0.202885 0.250000 0.250000
0.974928 1.000000 -0.222521 0.888897 -0.410732 0.202885 0.483983 0.196595
0.974928 1.000000 -0.222521 0.712840 -0.410732 -0.568471 0.483983 0.196595
0.000000 -1.000000 0.000000 0.712840 -0.410732 -0.568471 0.250000 0.250000
0.433884 1.000000 -0.900969 0.712840 -0.410732 -0.568471 0.354132 0.033767
0.433884 1.000000 -0.900969 -0.000000 -0.410732 -0.911756 0.354132 0.033767
0.000000 -1.000000 0.000000 -0.000000 -0.410732 -0.911756 0.250000 0.250000
-0.433884 1.000000 -0.900969 -0.000000 -0.410732 -0.911756 0.145868 0.033767
-0.433884 1.000000 -0.900969 -0.712840 -0.410732 -0.568471 0.145868 0.033767
0.000000 -1.000000 0.000000 -0.712840 -0.410732 -0.568471 0.250000 0.250000
-0.974928 1.000000 -0.222521 -0.712840 -0.410732 -0.568471 0.016017 0.196595
-0.974928 1.000000 -0.222521 -0.888897 -0.410732 0.202885 0.016017 0.196595
0.000000 -1.000000 0.000000 -0.888897 -0.410732 0.202885 0.250000 0.250000
-0.781832 1.000000 0.623490 -0.888897 -0.410732 0.202885 0.062360 0.399638
-0.781832 1.000000 0.623490 -0.395596 -0.410732 0.821464 0.062360 0.399638
0.000000 -1.000000 0.000000 -0.395596 -0.410732 0.821464 0.250000 0.250000
-0.000000 1.000000 1.000000 -0.395596 -0.410732 0.821464 0.250000 0.490000
-0.974928 1.000000 -0.222521 -0.000000 1.000000 0.000000 0.516017 0.196595
-0.781832 1.000000 0.623490 -0.000000 1.000000 0.000000 0.562360 0.399638
0.781831 1.000000 0.623490 -0.000000 1.000000 0.000000 0.937640 0.399638
-0.000000 1.000000 1.000000 -0.000000 1.000000 0.000000 0.750000 0.490000
0.974928 1.000000 -0.222521 -0.000000 1.000000 -0.000000 0.983983 0.196595
0.433884 1.000000 -0.900969 -0.000000 1.000000 -0.000000 0.854132 0.033767
-0.433884 1.000000 -0.900969 -0.000000 1.000000 -0.000000 0.645868 0.033767
3 0 1 2
3 3 4 5
3 6 7 8
3 9 10 11
3 12 13 14
3 15 16 17
3 18 19 20
3 21 22 23
3 22 24 23
3 23 25 21
3 25 26 21
3 26 27 21
