ply
format ascii 1.0
comment Created by Blender 2.83.0 - www.blender.org, source file: ''
element vertex 12
property float x
property float y
property float z
property float nx
property float ny
property float nz
property float s
property float t
element face 4
property list uchar uint vertex_indices
end_header
-0.000000 0.490000 1.000000 0.771423 -0.454470 0.445381 0.250000 0.490000
0.000000 -0.490000 0.000000 0.771423 -0.454470 0.445381 0.250000 0.250000
0.866025 0.490000 -0.500000 0.771423 -0.454470 0.445381 0.457846 0.130000
0.866025 0.490000 -0.500000 -0.000000 -0.454470 -0.890762 0.457846 0.130000
0.000000 -0.490000 0.000000 -0.000000 -0.454470 -0.890762 0.250000 0.250000
-0.866026 0.490000 -0.500000 -0.000000 -0.454470 -0.890762 0.042154 0.130000
-0.866026 0.490000 -0.500000 -0.771422 -0.454470 0.445381 0.042154 0.130000
0.000000 -0.490000 0.000000 -0.771422 -0.454470 0.445381 0.250000 0.250000
-0.000000 0.490000 1.000000 -0.771422 -0.454470 0.445381 0.250000 0.490000
-0.000000 0.490000 1.000000 -0.000000 1.000000 0.000000 0.750000 0.490000
0.866025 0.490000 -0.500000 -0.000000 1.000000 0.000000 0.957846 0.130000
-0.866026 0.490000 -0.500000 -0.000000 1.000000 0.000000 0.542154 0.130000
3 0 1 2
3 3 4 5
3 6 7 8
3 9 10 11
