ply
format ascii 1.0
comment Created by Blender 2.83.0 - www.blender.org, source file: ''
element vertex 20
property float x
property float y
property float z
property float nx
property float ny
property float nz
property float s
property float t
element face 8
property list uchar uint vertex_indices
end_header
-0.000000 1.000000 1.000000 0.544894 -0.374991 0.749982 0.250000 0.490000
0.000000 -1.000000 0.000000 0.544894 -0.374991 0.749982 0.250000 0.250000
0.951056 1.000000 0.309017 0.544894 -0.374991 0.749982 0.478254 0.324164
0.951056 1.000000 0.309017 0.881657 -0.374991 -0.286468 0.478254 0.324164
0.000000 -1.000000 0.000000 0.881657 -0.374991 -0.286468 0.250000 0.250000
0.587785 1.000000 -0.809017 0.881657 -0.374991 -0.286468 0.391068 0.055836
0.587785 1.000000 -0.809017 -0.000000 -0.374991 -0.927028 0.391068 0.055836
0.000000 -1.000000 0.000000 -0.000000 -0.374991 -0.927028 0.250000 0.250000
-0.587785 1.000000 -0.809017 -0.000000 -0.374991 -0.927028 0.108932 0.055836
-0.587785 1.000000 -0.809017 -0.881657 -0.374991 -0.286467 0.108932 0.055836
0.000000 -1.000000 0.000000 -0.881657 -0.374991 -0.286467 0.250000 0.250000
-0.951057 1.000000 0.309017 -0.881657 -0.374991 -0.286467 0.021746 0.324164
-0.951057 1.000000 0.309017 -0.544894 -0.374991 0.749982 0.021746 0.324164
0.000000 -1.000000 0.000000 -0.544894 -0.374991 0.749982 0.250000 0.250000
-0.000000 1.000000 1.000000 -0.544894 -0.374991 0.749982 0.250000 0.490000
0.951056 1.000000 0.309017 -0.000000 1.000000 -0.000000 0.978254 0.324164
-0.587785 1.000000 -0.809017 -0.000000 1.000000 -0.000000 0.608932 0.055836
-0.951057 1.000000 0.309017 -0.000000 1.000000 -0.000000 0.521746 0.324164
-0.000000 1.000000 1.000000 -0.000000 1.000000 0.000000 0.750000 0.490000
0.587785 1.000000 -0.809017 -0.000000 1.000000 -0.000000 0.891068 0.055836
3 0 1 2
3 3 4 5
3 6 7 8
3 9 10 11
3 12 13 14
3 15 16 17
3 17 18 15
3 15 19 16
